<?xml version="1.0" encoding="utf-8"?>
<!-- Generator: Adobe Illustrator 16.0.0, SVG Export Plug-In . SVG Version: 6.00 Build 0)  -->
<!DOCTYPE svg PUBLIC "-//W3C//DTD SVG 1.1//EN" "http://www.w3.org/Graphics/SVG/1.1/DTD/svg11.dtd">
<svg version="1.1" id="Layer_1" xmlns="http://www.w3.org/2000/svg" xmlns:xlink="http://www.w3.org/1999/xlink" x="0px" y="0px"
	 width="130px" height="130px" viewBox="0 0 130 130" enable-background="new 0 0 130 130" xml:space="preserve">
<g>
	<polygon fill="#11CEAA" points="59.963,34.272 40.712,45.387 69.592,62.122 88.922,51.007 	"/>
	<polygon fill="#11CEAA" points="59.963,78.733 40.712,89.849 69.592,106.586 88.922,95.469 	"/>
	<polygon fill="#26F9D0" points="69.6,28.768 69.6,128.849 88.93,117.732 88.93,17.652 	"/>
	<polyline fill="#1FEAC3" points="88.93,17.652 69.6,28.768 69.6,128.849 	"/>
	<path fill="#0CA88E" d="M69.6,128.821"/>
	<polygon fill="#0CA88E" points="40.625,12.04 40.625,34.272 59.973,45.332 59.973,56.448 40.625,45.387 40.712,67.629 
		59.985,78.81 59.985,100.965 40.625,89.911 40.625,112.143 69.599,128.821 69.599,84.237 69.6,28.659 	"/>
	<polygon fill="#11CEAA" points="59.963,0.916 40.712,12.032 69.592,28.768 88.922,17.652 	"/>
</g>
</svg>
