<?xml version="1.0" encoding="utf-8"?>
<!-- Generator: Adobe Illustrator 16.0.0, SVG Export Plug-In . SVG Version: 6.00 Build 0)  -->
<!DOCTYPE svg PUBLIC "-//W3C//DTD SVG 1.1//EN" "http://www.w3.org/Graphics/SVG/1.1/DTD/svg11.dtd">
<svg version="1.1" id="Layer_1" xmlns="http://www.w3.org/2000/svg" xmlns:xlink="http://www.w3.org/1999/xlink" x="0px" y="0px"
	 width="130px" height="130px" viewBox="0 0 130 130" enable-background="new 0 0 130 130" xml:space="preserve">
<g>
	<polygon fill="#11CEAA" points="60.305,78.709 41.053,89.824 60.141,100.986 79.471,89.871 	"/>
	<polygon fill="#0CA88E" points="40.975,12.04 50.6,17.598 50.6,84.291 40.975,78.733 	"/>
	<polygon fill="#0CA88E" points="60.262,67.618 69.889,73.176 69.889,128.914 60.262,123.356 	"/>
	<polygon fill="#1FEAC3" points="50.598,16.816 50.598,83.684 69.928,72.567 69.928,7.524 	"/>
	<polygon fill="#1FEAC3" points="69.818,28.711 69.818,50.947 89.148,39.832 89.148,17.595 	"/>
	<polygon fill="#26F9D0" points="69.818,73.187 69.818,128.77 89.148,117.654 89.148,62.071 	"/>
	<polyline fill="#1FEAC3" points="89.148,62.071 69.818,73.187 69.818,128.77 	"/>
	<polygon fill="#0CA88E" points="40.971,56.502 40.971,78.733 69.818,95.42 69.818,73.189 	"/>
	<polygon fill="#11CEAA" points="69.849,50.959 50.598,62.073 69.685,73.235 89.015,62.12 	"/>
	<polygon fill="#0CA88E" points="41.011,12.04 41.011,34.272 69.867,50.92 69.867,28.688 	"/>
	<polygon fill="#0CA88E" points="41.011,89.849 41.011,112.08 69.867,128.729 69.867,106.498 	"/>
	<polygon fill="#11CEAA" points="60.262,0.922 41.011,12.037 69.783,28.725 89.113,17.608 	"/>
</g>
</svg>
