<?xml version="1.0" encoding="utf-8"?>
<!-- Generator: Adobe Illustrator 16.0.0, SVG Export Plug-In . SVG Version: 6.00 Build 0)  -->
<!DOCTYPE svg PUBLIC "-//W3C//DTD SVG 1.1//EN" "http://www.w3.org/Graphics/SVG/1.1/DTD/svg11.dtd">
<svg version="1.1" id="Layer_1" xmlns="http://www.w3.org/2000/svg" xmlns:xlink="http://www.w3.org/1999/xlink" x="0px" y="0px"
	 width="130px" height="130px" viewBox="0 0 130 130" enable-background="new 0 0 130 130" xml:space="preserve">
<g>
	<polygon fill="#11CEAA" points="59.79,78.709 40.539,89.824 59.626,100.986 78.956,89.871 	"/>
	<polygon fill="#0CA88E" points="40.46,12.04 50.086,17.598 50.086,84.291 40.46,78.733 	"/>
	<polygon fill="#0CA88E" points="40.46,30.798 50.086,36.356 50.086,103.049 40.46,97.491 	"/>
	<polygon fill="#0CA88E" points="59.748,67.618 69.373,73.176 69.373,128.914 59.748,123.356 	"/>
	<polygon fill="#1FEAC3" points="50.083,16.816 50.083,83.684 69.413,72.567 69.413,7.524 	"/>
	<polygon fill="#1FEAC3" points="50.083,28.554 50.083,95.42 69.413,84.305 69.413,19.262 	"/>
	<polygon fill="#1FEAC3" points="69.305,28.711 69.305,50.947 88.635,39.832 88.635,17.595 	"/>
	<polygon fill="#26F9D0" points="69.305,73.187 69.305,128.77 88.635,117.654 88.635,62.071 	"/>
	<polyline fill="#1FEAC3" points="88.635,62.071 69.305,73.187 69.305,128.77 	"/>
	<polygon fill="#0CA88E" points="40.456,56.502 40.456,78.733 69.305,95.42 69.305,73.189 	"/>
	<polygon fill="#11CEAA" points="69.334,50.959 50.083,62.073 69.17,73.235 88.5,62.12 	"/>
	<polygon fill="#0CA88E" points="40.496,12.04 40.496,34.272 69.354,50.92 69.354,28.688 	"/>
	<polygon fill="#0CA88E" points="40.496,89.849 40.496,112.08 69.354,128.729 69.354,106.498 	"/>
	<polygon fill="#11CEAA" points="59.748,0.922 40.496,12.037 69.27,28.725 88.6,17.608 	"/>
</g>
</svg>
