<?xml version="1.0" encoding="utf-8"?>
<!-- Generator: Adobe Illustrator 16.0.0, SVG Export Plug-In . SVG Version: 6.00 Build 0)  -->
<!DOCTYPE svg PUBLIC "-//W3C//DTD SVG 1.1//EN" "http://www.w3.org/Graphics/SVG/1.1/DTD/svg11.dtd">
<svg version="1.1" id="Layer_1" xmlns="http://www.w3.org/2000/svg" xmlns:xlink="http://www.w3.org/1999/xlink" x="0px" y="0px"
	 width="130px" height="130px" viewBox="0 0 130 130" enable-background="new 0 0 130 130" xml:space="preserve">
<g>
	<polygon fill="#1FEAC3" points="48.649,16.918 48.649,79.385 67.979,69.808 67.979,5.801 	"/>
	<polygon fill="#11CEAA" points="64.167,50.435 50.087,58.564 71.131,70.769 85.269,62.638 	"/>
	<polygon fill="#0CA88E" points="59.713,39.832 69.339,45.39 69.339,128.916 59.713,123.358 	"/>
	<polygon fill="#0CA88E" points="40.462,25.59 50.087,31.147 50.087,80.581 40.462,75.023 	"/>
	<polygon fill="#0CA88E" points="40.462,12.043 40.462,34.273 69.317,50.923 69.317,28.691 	"/>
	<polygon fill="#0CA88E" points="40.462,53.031 40.462,75.263 69.317,91.911 69.317,69.681 	"/>
	<polygon fill="#11CEAA" points="59.713,0.925 40.462,12.04 69.233,28.727 88.563,17.611 	"/>
	<polygon fill="#26F9D0" points="69.269,28.727 69.269,128.772 88.599,117.657 88.599,17.611 	"/>
	<polyline fill="#1FEAC3" points="88.599,17.611 69.269,28.727 69.269,128.772 	"/>
</g>
</svg>
