<?xml version="1.0" encoding="utf-8"?>
<!-- Generator: Adobe Illustrator 16.0.0, SVG Export Plug-In . SVG Version: 6.00 Build 0)  -->
<!DOCTYPE svg PUBLIC "-//W3C//DTD SVG 1.1//EN" "http://www.w3.org/Graphics/SVG/1.1/DTD/svg11.dtd">
<svg version="1.1" id="Layer_1" xmlns="http://www.w3.org/2000/svg" xmlns:xlink="http://www.w3.org/1999/xlink" x="0px" y="0px"
	 width="130px" height="130px" viewBox="0 0 130 130" enable-background="new 0 0 130 130" xml:space="preserve">
<g>
	<polygon fill="#11CEAA" points="59.916,34.272 40.665,45.387 69.544,62.122 88.875,51.007 	"/>
	<polygon fill="#11CEAA" points="59.916,78.733 40.665,89.849 69.544,106.586 88.875,95.469 	"/>
	<polygon fill="#26F9D0" points="69.552,28.768 69.552,84.3 88.882,73.184 88.882,17.652 	"/>
	<polyline fill="#1FEAC3" points="88.882,17.652 69.552,28.768 69.552,84.3 	"/>
	<polygon fill="#1FEAC3" points="69.552,106.4 69.552,128.83 88.882,117.714 88.882,95.284 	"/>
	<polygon fill="#1FEAC3" points="50.222,73.452 50.222,95.284 69.552,84.169 69.552,62.337 	"/>
	<polygon fill="#0CA88E" points="50.298,73.121 69.551,84.237 69.552,28.659 40.578,12.04 40.578,34.272 59.925,45.332 
		59.925,56.448 40.578,45.387 40.578,112.094 69.552,128.821 69.552,106.468 50.298,95.353 	"/>
	<polygon fill="#11CEAA" points="59.916,0.916 40.665,12.032 69.544,28.768 88.875,17.652 	"/>
</g>
</svg>
