<?xml version="1.0" encoding="utf-8"?>
<!-- Generator: Adobe Illustrator 16.0.0, SVG Export Plug-In . SVG Version: 6.00 Build 0)  -->
<!DOCTYPE svg PUBLIC "-//W3C//DTD SVG 1.1//EN" "http://www.w3.org/Graphics/SVG/1.1/DTD/svg11.dtd">
<svg version="1.1" id="Layer_1" xmlns="http://www.w3.org/2000/svg" xmlns:xlink="http://www.w3.org/1999/xlink" x="0px" y="0px"
	 width="130px" height="130px" viewBox="0 0 130 130" enable-background="new 0 0 130 130" xml:space="preserve">
<g>
	<polygon fill="#11CEAA" points="59.887,78.747 40.636,89.862 50.272,95.412 60.438,78.73 	"/>
	<polygon fill="#0CA88E" points="50.305,17.652 60.392,23.202 60.392,123.242 50.305,117.692 	"/>
	<polygon fill="#0CA88E" points="40.677,12.04 40.677,34.272 70.764,51.4 70.764,29.169 	"/>
	<polygon fill="#11CEAA" points="59.928,0.916 40.677,12.032 60.392,23.202 79.722,12.086 	"/>
	<polygon fill="#26F9D0" points="60.392,23.202 60.392,123.242 79.722,112.127 79.722,12.086 	"/>
	<polyline fill="#1FEAC3" points="79.722,12.086 60.392,23.202 60.392,123.242 	"/>
	<polygon fill="#1FEAC3" points="69.985,106.515 69.985,128.752 89.315,117.635 89.315,95.398 	"/>
	<polygon fill="#0CA88E" points="40.636,89.849 40.636,112.08 70.057,128.775 70.057,106.544 	"/>
	<polygon fill="#11CEAA" points="79.554,89.847 60.303,100.962 69.939,106.506 89.27,95.391 	"/>
</g>
</svg>
