<?xml version="1.0" encoding="utf-8"?>
<!-- Generator: Adobe Illustrator 16.0.0, SVG Export Plug-In . SVG Version: 6.00 Build 0)  -->
<!DOCTYPE svg PUBLIC "-//W3C//DTD SVG 1.1//EN" "http://www.w3.org/Graphics/SVG/1.1/DTD/svg11.dtd">
<svg version="1.1" id="Layer_1" xmlns="http://www.w3.org/2000/svg" xmlns:xlink="http://www.w3.org/1999/xlink" x="0px" y="0px"
	 width="130px" height="130px" viewBox="0 0 130 130" enable-background="new 0 0 130 130" xml:space="preserve">
<g>
	<polygon fill="#1FEAC3" points="50.414,17.806 50.414,79.505 69.745,68.39 69.745,6.689 	"/>
	<polygon fill="#11CEAA" points="64.535,50.636 50.454,58.766 71.498,70.97 85.634,62.839 	"/>
	<polygon fill="#0CA88E" points="60.079,40.033 69.705,45.591 69.705,129.117 60.079,123.56 	"/>
	<polygon fill="#0CA88E" points="40.829,12.262 50.454,17.819 50.454,81.05 40.829,75.492 	"/>
	<polygon fill="#0CA88E" points="40.829,53.232 40.829,75.464 69.685,92.112 69.685,69.882 	"/>
	<polygon fill="#11CEAA" points="60.079,1.127 40.829,12.241 50.47,17.801 69.8,6.686 	"/>
	<polygon fill="#11CEAA" points="79.329,28.959 60.079,40.074 69.72,45.634 89.05,34.519 	"/>
	<polygon fill="#26F9D0" points="69.636,45.557 69.636,128.974 88.966,117.858 88.966,34.441 	"/>
	<polyline fill="#1FEAC3" points="88.966,34.441 69.636,45.557 69.636,128.974 	"/>
</g>
</svg>
