<?xml version="1.0" encoding="utf-8"?>
<!-- Generator: Adobe Illustrator 16.0.0, SVG Export Plug-In . SVG Version: 6.00 Build 0)  -->
<!DOCTYPE svg PUBLIC "-//W3C//DTD SVG 1.1//EN" "http://www.w3.org/Graphics/SVG/1.1/DTD/svg11.dtd">
<svg version="1.1" id="Layer_1" xmlns="http://www.w3.org/2000/svg" xmlns:xlink="http://www.w3.org/1999/xlink" x="0px" y="0px"
	 width="130px" height="130px" viewBox="0 0 130 130" enable-background="new 0 0 130 130" xml:space="preserve">
<g>
	<polygon fill="#1FEAC3" points="49.094,16.918 49.094,116.962 68.425,105.847 68.425,5.801 	"/>
	<polygon fill="#11CEAA" points="64.612,50.435 50.531,58.564 71.575,70.769 85.712,62.638 	"/>
	<polygon fill="#11CEAA" points="64.612,87.141 50.531,95.272 71.575,107.475 85.712,99.345 	"/>
	<polygon fill="#0CA88E" points="60.156,39.832 69.782,45.39 69.782,128.916 60.156,123.358 	"/>
	<polygon fill="#0CA88E" points="40.906,25.59 50.531,31.147 50.531,114.675 40.906,109.117 	"/>
	<polygon fill="#0CA88E" points="40.906,12.043 40.906,34.273 69.763,50.923 69.763,28.691 	"/>
	<polygon fill="#0CA88E" points="40.906,53.031 40.906,75.263 69.763,91.911 69.763,69.681 	"/>
	<polygon fill="#0CA88E" points="40.906,89.849 40.906,112.08 69.763,128.729 69.763,106.498 	"/>
	<polygon fill="#11CEAA" points="60.156,0.925 40.906,12.04 69.679,28.727 89.009,17.611 	"/>
	<polygon fill="#26F9D0" points="69.714,28.727 69.714,128.772 89.044,117.657 89.044,17.611 	"/>
	<polyline fill="#1FEAC3" points="89.044,17.611 69.714,28.727 69.714,128.772 	"/>
</g>
</svg>
