<?xml version="1.0" encoding="utf-8"?>
<!-- Generator: Adobe Illustrator 16.0.0, SVG Export Plug-In . SVG Version: 6.00 Build 0)  -->
<!DOCTYPE svg PUBLIC "-//W3C//DTD SVG 1.1//EN" "http://www.w3.org/Graphics/SVG/1.1/DTD/svg11.dtd">
<svg version="1.1" id="Layer_1" xmlns="http://www.w3.org/2000/svg" xmlns:xlink="http://www.w3.org/1999/xlink" x="0px" y="0px"
	 width="130px" height="130px" viewBox="0 0 130 130" enable-background="new 0 0 130 130" xml:space="preserve">
<g>
	<polygon fill="#1FEAC3" points="49.233,12.075 49.221,112.077 68.551,100.962 68.563,6.759 	"/>
	<polygon fill="#11CEAA" points="70.03,84.294 50.779,95.409 65.072,103.575 84.402,92.46 	"/>
	<polygon fill="#0CA88E" points="40.948,12.032 50.553,17.006 50.779,117.732 40.948,112.072 	"/>
	<polygon fill="#0CA88E" points="60.14,23.061 69.895,28.743 69.97,128.762 60.14,123.101 	"/>
	<polygon fill="#0CA88E" points="48.353,94.061 48.353,116.293 60.889,123.56 60.889,101.328 	"/>
	<polygon fill="#0CA88E" points="48.353,16.339 48.353,38.569 60.889,45.837 60.889,23.606 	"/>
	<polygon fill="#11CEAA" points="60.199,0.916 40.948,12.032 69.895,28.735 89.225,17.619 	"/>
	<polygon fill="#26F9D0" points="69.982,28.743 69.97,128.745 89.3,117.63 89.313,17.628 	"/>
	<polyline fill="#1FEAC3" points="89.313,17.628 69.982,28.743 69.97,128.745 	"/>
</g>
</svg>
